PathFileType	4	(X/Y/Z)	pose_F01_0-90.trc
DataRate	CameraRate	NumFrames	NumMarkers	Units	OrigDataRate	OrigDataStartFrame	OrigNumFrames
30	30	9	21	m	30	22	90
Frame#	Time	CHip			RHip			RKnee			RAnkle			RBigToe			RSmallToe			RHeel			LHip			LKnee			LAnkle			LBigToe			LSmallToe			LHeel			Neck			Nose			RShoulder			RElbow			RWrist			LShoulder			LElbow			LWrist			
		X1	Y1	Z1	X2	Y2	Z2	X3	Y3	Z3	X4	Y4	Z4	X5	Y5	Z5	X6	Y6	Z6	X7	Y7	Z7	X8	Y8	Z8	X9	Y9	Z9	X10	Y10	Z10	X11	Y11	Z11	X12	Y12	Z12	X13	Y13	Z13	X14	Y14	Z14	X15	Y15	Z15	X16	Y16	Z16	X17	Y17	Z17	X18	Y18	Z18	X19	Y19	Z19	X20	Y20	Z20	X21	Y21	Z21	
22	0.7333333333333333	-0.2028725648091971	1.8356019677846358	-0.5466903052578549	-0.21986327286108764	1.8336569226249417	-0.4841045452185089	-0.21948291758420757	1.7128950511867744	-0.4950820568681066										-0.2037565728562685	1.590537996091005	-0.5115109213441936	-0.19077660831842577	1.8390247672023396	-0.6114760459386563	-0.1869044082929085	1.7115101891506277	-0.6112463447231371	-0.1750324561345347	1.5982101150991461	-0.6127689379734574	-0.18502969884847356	1.568357465137617	-0.654535171809668	-0.1751083262674834	1.579959302127842	-0.6699071269791114	-0.17127847963129497	1.5905462409368871	-0.5900631691241615	-0.198161786114149	1.9830997039455496	-0.569186730428209	-0.21575321241906775	2.0426435466558437	-0.5861501129315508	-0.2186824735062595	1.9789003812730988	-0.48247022930673134	-0.23730870640792312	1.909087128897438	-0.4247174121056056	-0.26218793603952245	1.8823728155881663	-0.4940924132534856	-0.1741203619968032	1.9844219714734566	-0.6606876406437656	-1.2416032377804542	1.8502680279768584	0.3899743597714804	-0.1642031049821691	1.9031945084825566	-0.7522037543048419
23	0.7666666666666667	-0.19916418129781227	1.8350874563633852	-0.5596483197363247	-0.21125956763555867	1.8308977104884707	-0.4979121049048584	-0.21759108604793717	1.7138726868022136	-0.49520588085107364										-0.2037565728562685	1.590537996091005	-0.5115109213441936	-0.18235026223499184	1.8360575871265996	-0.6288200335722445	-0.1825982579752719	1.712391724548835	-0.6159079785191689	-0.17365500559008848	1.5966676255831984	-0.6136052117717871	-0.18368633179102228	1.5682243896122894	-0.6600272112177079	-0.17307820156832524	1.578154138490135	-0.6716542150480811	-0.1722149574478295	1.5872782519501838	-0.5880147761235133	-0.19371442948185394	1.9839259628355488	-0.5823534170987755	-0.21031790422190902	2.0416170319199543	-0.595590857881445	-1.7606330563390507	1.8901694943111502	1.2083766282878412	-0.23734275510140937	1.907887628311626	-0.43948010828340267	-0.25925179719309105	1.9033594994886154	-0.4778617095525175	-0.16841730331675153	1.9869543851687086	-0.6711794973237535	-0.1391118124876604	1.93904769213766	-0.7193236933560402	-0.1824708718512309	1.9267305729543363	-0.7059745230409463
24	0.8	-0.1927906683691792	1.8400114819451574	-0.5795551907896741	-0.208190161079962	1.839066391207051	-0.5102405221536884	-0.21569925451166677	1.714850322417653	-0.49532970483404065										-0.2037565728562685	1.590537996091005	-0.5115109213441936	-0.17609185826406962	1.8414839768112161	-0.6398330863490085	-0.18005780641548091	1.71580151348486	-0.6191343656151244	-0.1715615905861518	1.5972175139777065	-0.6159136906137601	-0.18387907499943087	1.5696557767753996	-0.6601013999419962	-0.17125690710424463	1.5803262753046972	-0.6735761752774959	-0.170303079615972	1.5885209738172499	-0.5903770659100324	-0.1880363568432923	1.9844438586265856	-0.6007993607524964	-0.2070634121410226	2.036143482242173	-0.6020644407955458	-1.7454866146111578	1.8882591106016824	1.1843763335565767	-0.24046748545861038	1.9236104297380505	-0.43672067613648724	-0.25631565834665965	1.9243461833890645	-0.46163100585154937	-0.16259256173192002	1.9891959796383345	-0.6811839269347393	-0.14627231152341497	1.9568389346245159	-0.7840204360036502	-0.16808674513580846	1.9692340331285128	-0.7713849110441607
25	0.8333333333333334	-0.1894091620431423	1.8407694587144423	-0.5874672500467373	-0.20425086906218912	1.8394254402402728	-0.5237219679596334	-0.21380742297539637	1.7158279580330922	-0.4954535288170077										-0.2037565728562685	1.590537996091005	-0.5115109213441936	-0.17184089520203918	1.840519550311922	-0.6445891752401702	-0.17606035542666684	1.7148812072035413	-0.6231795234443913	-0.1719228038462474	1.5965552756489672	-0.6153741316474078	-0.18187555628037302	1.5729551388843261	-0.6625922944598714	-0.1719468997635674	1.5820752572248382	-0.677287509292749	-0.17025402697428085	1.588283748638875	-0.5902702202182406	-0.18587939647068488	1.98413425538666	-0.6034307048224514	-0.20491753628764692	2.030874290632486	-0.6120761636383342	-1.7457907418343863	1.8902582997365014	1.1849383374009894	-0.2342326248284805	1.933402613059943	-0.43630643858216933	-0.25337951950022825	1.9453328672895136	-0.44540030215058124	-0.16135172834799494	1.9871541819201703	-0.6868336497900066	-0.1372390634028796	1.9633923055479585	-0.8089952433678046	-0.15533064279883463	1.9981772850695274	-0.8045394093616564
26	0.8666666666666667	-0.18567524175337394	1.8447149302817356	-0.5924674955737623	-0.20052782208793138	1.8451717140755641	-0.5374921698442855	-0.2161922657206418	1.7191943800909222	-0.5107857319056002										-0.2037565728562685	1.590537996091005	-0.5115109213441936	-0.1684598864734078	1.8455088915955702	-0.652792464349259	-0.17415286136094332	1.7199544918101146	-0.6256503889776039	-0.17160334690436224	1.5979352878275415	-0.6159547580952326	-0.18359783828314222	1.5709740924289906	-0.6606925001546275	-0.17319057219447842	1.5818983031498297	-0.6719774098275838	-0.16983779537479698	1.5891243382192444	-0.5908775016513697	-0.18250610258228164	1.9855572828109733	-0.6108791755411175	-0.20381478904181183	2.0285591931979057	-0.6175781312510692	-1.743918078800712	1.8903987836907066	1.1827155808232537	-0.22979432527033583	1.9339290962042903	-0.423133822875539	-0.25044338065379684	1.9663195511899627	-0.42916959844961317	-0.1597656240440767	1.989230975392981	-0.6922736857278201	-0.13347190737337694	1.9710441615980319	-0.8197497910376983	-0.15707091149645874	2.0125659841375696	-0.837830421682939
27	0.9	-0.18689290325955507	1.8463182027523308	-0.5956394486863299	-0.20080714541182268	1.8449030028283493	-0.5375802212961311	-0.21425886054247215	1.7198601727733116	-0.5131284303358064										-0.2037565728562685	1.590537996091005	-0.5115109213441936	-0.16683270552190596	1.8476295721764666	-0.6551365934530629	-0.17205186130952277	1.7211067044987092	-0.6279798537961779	-0.16900505426026186	1.6006188469237066	-0.6193555208457668	-0.18297494193762986	1.5697572010789789	-0.6569269140486923	-0.17095848779078257	1.5815771826096003	-0.6741766141872938	-0.17059828029289786	1.5907058346881027	-0.5947475379674605	-0.18246147523890788	1.985230015743763	-0.6111546456512778	-0.20164536065546015	2.0313390274556093	-0.6202219932534779	-0.2032495147506037	1.9826764976586606	-0.5217126864543018	-0.2270440570508072	1.9332177355510347	-0.42242778820450166	-0.24169766324312403	1.9725630750877459	-0.3627025633869523	-0.15694229007412322	1.9898462794195282	-0.7030285540061718	-0.12390379315991337	1.9685727516578344	-0.828304008286117	-0.12453315384900737	2.0022415949199712	-0.896730106398091
28	0.9333333333333333	-0.18663921401064723	1.8436515396815347	-0.595368037750863	-0.2007084931027757	1.8435910523036454	-0.5373918854658176	-0.21099852458052545	1.716638994127197	-0.5205640480870906										-0.2037565728562685	1.590537996091005	-0.5115109213441936	-0.166557210554406	1.8451001333876973	-0.6549250041702913	-0.17199447921075553	1.7207155785079857	-0.6280563165522836	-0.16985360923294474	1.6026563312703204	-0.6183261385763374	-0.18194347141394993	1.570484581774469	-0.6622561524115917	-0.17311303526464972	1.581633791297333	-0.6719325078405501	-0.1719444938345487	1.590446159072427	-0.5975972048930637	-0.18037338412519793	1.985052034955528	-0.6134289356572448	-0.20246725355391837	2.0373096483453352	-0.624406028894529	-1.7413652947579328	1.890581796546488	1.1798815981683908	-0.22402157083586458	1.9242613943362812	-0.4195780303625921	-0.24580204537079625	1.9536896224659384	-0.33189585377375264	-0.15473492742459194	1.989460243202105	-0.7053557345322516	-1.073074383423639	1.8601512691892739	0.1630593997144727	-0.5294365749498875	1.9460325555899516	-0.4918923018824661
29	0.9666666666666667	-0.18535350496559022	1.8483970395523723	-0.5931686783402018	-0.2000902691550046	1.8475396070381358	-0.5380974468156122	-0.20641958006407013	1.7140720875705098	-0.5254152830616615										-0.2037565728562685	1.590537996091005	-0.5115109213441936	-0.1663932623454725	1.8496469288157134	-0.6555209971363077	-0.16991759956760868	1.720850973663552	-0.6303585671513197	-0.17008574378710753	1.6012826352283824	-0.6177983343735743	-0.18180672531550102	1.5730191785913827	-0.6626625994383882	-0.17106767420309718	1.5824848830992084	-0.6739219806003901	-0.17034740060258066	1.5902488792351503	-0.5992216732125946	-0.17842347139360704	1.9838527396779817	-0.6156463868261617	-0.2024043996167001	2.041830623643714	-0.6251869772054676	-1.7422858301593391	1.8906261459897877	1.1809213902159508	-0.2192682222179029	1.9195422735494925	-0.4288260942974893	-0.2477463645691637	1.9365053311587581	-0.3493872111862435	-0.15266306672772034	1.9865848655312526	-0.7074377251454977	-1.0750103311114796	1.8515285109834867	0.17369708608522255	-0.9343399960507675	1.889823516259932	-0.08705449736684108
30	1.0	-0.1859516606554411	1.8452533735639305	-0.5923987630427531	-0.19988583185057146	1.8454467592883184	-0.5343814599828947	-0.2056134553099011	1.7124625843588832	-0.5217318301925855										-0.2037565728562685	1.590537996091005	-0.5115109213441936	-0.16808644721314586	1.8471140692726944	-0.649749313242361	-0.17297737018638437	1.7210648112366356	-0.6313855179146488	-0.17001418521399714	1.60106339001583	-0.6179344800376576	-0.18184211914028975	1.5735081508709077	-0.6627459045484623	-0.17189401323395614	1.5825646797956114	-0.6771970017747234	-0.1702958686469851	1.5900954906727391	-0.5992845870654	-0.18045590430062047	1.9838731991652787	-0.6134712705125506	-0.20116274125179268	2.042898825942898	-0.6302752443534891	-0.20130181807047212	1.9827506838212248	-0.5238413305006215	-0.21938369493417845	1.9181745916104112	-0.4288382347525887	-0.2493892686101775	1.9344950200433537	-0.36118720560914613	-0.15280348266740637	1.9879238197195042	-0.7076371942392387	-1.0700241070632268	1.8464780290584326	0.16849574674334275	-0.10483426203530183	1.9727319500377078	-0.9081496684160779
